<svg xmlns="http://www.w3.org/2000/svg" width="1578" height="168" viewBox="0 0 1578 168" fill="none"><g clip-path="url(#clip0_175_16)"><g clip-path="url(#clip1_175_16)"><path d="M318.316 0H229.895V35.3684H318.316V0Z" fill="#231F20"></path><path d="M92.842 0H57.4736V114.947H92.842V0Z" fill="#231F20"></path><path d="M150.316 0H114.947V168H150.316V0Z" fill="#231F20"></path><path d="M35.3684 0H0V168H35.3684V0Z" fill="#231F20"></path><path d="M265.263 57.4736H229.895V168H265.263V57.4736Z" fill="#231F20"></path><path d="M207.789 0H172.421V35.3684H207.789V0Z" fill="#231F20"></path><path d="M207.789 57.4736H172.421V168H207.789V57.4736Z" fill="#A41F35"></path></g><path d="M384.37 94.2C384.37 92.0667 383.57 90.3333 381.97 89C380.437 87.6667 378.47 86.4667 376.07 85.4C373.737 84.2667 371.17 83.1333 368.37 82C365.637 80.8 363.07 79.3667 360.67 77.7C358.337 75.9667 356.37 73.8333 354.77 71.3C353.237 68.7667 352.47 65.5333 352.47 61.6C352.47 58.2 353.037 55.2667 354.17 52.8C355.303 50.2667 356.903 48.1667 358.97 46.5C361.103 44.8333 363.603 43.6 366.47 42.8C369.337 42 372.537 41.6 376.07 41.6C380.137 41.6 383.97 41.9667 387.57 42.7C391.17 43.3667 394.137 44.3667 396.47 45.7L392.17 57.2C390.703 56.2667 388.503 55.4333 385.57 54.7C382.637 53.9 379.47 53.5 376.07 53.5C372.87 53.5 370.403 54.1333 368.67 55.4C367.003 56.6667 366.17 58.3667 366.17 60.5C366.17 62.5 366.937 64.1667 368.47 65.5C370.07 66.8333 372.037 68.0667 374.37 69.2C376.77 70.3333 379.337 71.5 382.07 72.7C384.87 73.9 387.437 75.3667 389.77 77.1C392.17 78.7667 394.137 80.8667 395.67 83.4C397.27 85.8667 398.07 88.9667 398.07 92.7C398.07 96.4333 397.437 99.6667 396.17 102.4C394.97 105.067 393.237 107.3 390.97 109.1C388.77 110.9 386.07 112.233 382.87 113.1C379.737 113.967 376.27 114.4 372.47 114.4C367.47 114.4 363.07 113.933 359.27 113C355.47 112.067 352.67 111.133 350.87 110.2L355.27 98.5C356.003 98.9 356.937 99.3333 358.07 99.8C359.27 100.267 360.603 100.7 362.07 101.1C363.537 101.5 365.07 101.833 366.67 102.1C368.337 102.367 370.037 102.5 371.77 102.5C375.837 102.5 378.937 101.833 381.07 100.5C383.27 99.1 384.37 97 384.37 94.2ZM442.297 109.9C440.297 111.367 437.864 112.467 434.997 113.2C432.197 114 429.297 114.4 426.297 114.4C422.297 114.4 418.897 113.767 416.097 112.5C413.364 111.233 411.131 109.467 409.397 107.2C407.664 104.867 406.397 102.067 405.597 98.8C404.864 95.5333 404.497 91.9333 404.497 88C404.497 79.5333 406.397 73.0333 410.197 68.5C413.997 63.9 419.531 61.6 426.797 61.6C430.464 61.6 433.397 61.9 435.597 62.5C437.864 63.1 439.897 63.8667 441.697 64.8L438.597 75.4C437.064 74.6667 435.531 74.1 433.997 73.7C432.531 73.3 430.831 73.1 428.897 73.1C425.297 73.1 422.564 74.3 420.697 76.7C418.831 79.0333 417.897 82.8 417.897 88C417.897 90.1333 418.131 92.1 418.597 93.9C419.064 95.7 419.764 97.2667 420.697 98.6C421.631 99.9333 422.831 101 424.297 101.8C425.831 102.533 427.597 102.9 429.597 102.9C431.797 102.9 433.664 102.633 435.197 102.1C436.731 101.5 438.097 100.8 439.297 100L442.297 109.9ZM451.359 63H464.359V113H451.359V63ZM449.459 48.9C449.459 46.9667 450.159 45.3333 451.559 44C453.026 42.6 455.026 41.9 457.559 41.9C460.092 41.9 462.126 42.6 463.659 44C465.259 45.3333 466.059 46.9667 466.059 48.9C466.059 50.8333 465.259 52.4667 463.659 53.8C462.126 55.0667 460.092 55.7 457.559 55.7C455.026 55.7 453.026 55.0667 451.559 53.8C450.159 52.4667 449.459 50.8333 449.459 48.9ZM517.014 108.7C515.014 110.3 512.281 111.667 508.814 112.8C505.414 113.867 501.781 114.4 497.914 114.4C489.848 114.4 483.948 112.067 480.214 107.4C476.481 102.667 474.614 96.2 474.614 88C474.614 79.2 476.714 72.6 480.914 68.2C485.114 63.8 491.014 61.6 498.614 61.6C501.148 61.6 503.614 61.9333 506.014 62.6C508.414 63.2667 510.548 64.3667 512.414 65.9C514.281 67.4333 515.781 69.5 516.914 72.1C518.048 74.7 518.614 77.9333 518.614 81.8C518.614 83.2 518.514 84.7 518.314 86.3C518.181 87.9 517.948 89.5667 517.614 91.3H487.614C487.814 95.5 488.881 98.6667 490.814 100.8C492.814 102.933 496.014 104 500.414 104C503.148 104 505.581 103.6 507.714 102.8C509.914 101.933 511.581 101.067 512.714 100.2L517.014 108.7ZM498.414 72C495.014 72 492.481 73.0333 490.814 75.1C489.214 77.1 488.248 79.8 487.914 83.2H506.514C506.781 79.6 506.214 76.8333 504.814 74.9C503.481 72.9667 501.348 72 498.414 72ZM558.396 113V84.6C558.396 80.5333 557.796 77.6 556.596 75.8C555.462 74 553.496 73.1 550.696 73.1C548.229 73.1 546.129 73.8333 544.396 75.3C542.729 76.7 541.529 78.4667 540.796 80.6V113H527.796V63H538.096L539.596 69.6H539.996C541.529 67.4667 543.562 65.6 546.096 64C548.629 62.4 551.896 61.6 555.896 61.6C558.362 61.6 560.562 61.9333 562.496 62.6C564.429 63.2667 566.062 64.3667 567.396 65.9C568.729 67.4333 569.729 69.5333 570.396 72.2C571.062 74.8 571.396 78.0333 571.396 81.9V113H558.396ZM617.688 109.9C615.688 111.367 613.255 112.467 610.388 113.2C607.588 114 604.688 114.4 601.688 114.4C597.688 114.4 594.288 113.767 591.488 112.5C588.755 111.233 586.521 109.467 584.788 107.2C583.055 104.867 581.788 102.067 580.988 98.8C580.255 95.5333 579.888 91.9333 579.888 88C579.888 79.5333 581.788 73.0333 585.588 68.5C589.388 63.9 594.921 61.6 602.188 61.6C605.855 61.6 608.788 61.9 610.988 62.5C613.255 63.1 615.288 63.8667 617.088 64.8L613.988 75.4C612.455 74.6667 610.921 74.1 609.388 73.7C607.921 73.3 606.221 73.1 604.288 73.1C600.688 73.1 597.955 74.3 596.088 76.7C594.221 79.0333 593.288 82.8 593.288 88C593.288 90.1333 593.521 92.1 593.988 93.9C594.455 95.7 595.155 97.2667 596.088 98.6C597.021 99.9333 598.221 101 599.688 101.8C601.221 102.533 602.988 102.9 604.988 102.9C607.188 102.9 609.055 102.633 610.588 102.1C612.121 101.5 613.488 100.8 614.688 100L617.688 109.9ZM663.889 108.7C661.889 110.3 659.156 111.667 655.689 112.8C652.289 113.867 648.656 114.4 644.789 114.4C636.723 114.4 630.823 112.067 627.089 107.4C623.356 102.667 621.489 96.2 621.489 88C621.489 79.2 623.589 72.6 627.789 68.2C631.989 63.8 637.889 61.6 645.489 61.6C648.023 61.6 650.489 61.9333 652.889 62.6C655.289 63.2667 657.423 64.3667 659.289 65.9C661.156 67.4333 662.656 69.5 663.789 72.1C664.923 74.7 665.489 77.9333 665.489 81.8C665.489 83.2 665.389 84.7 665.189 86.3C665.056 87.9 664.823 89.5667 664.489 91.3H634.489C634.689 95.5 635.756 98.6667 637.689 100.8C639.689 102.933 642.889 104 647.289 104C650.023 104 652.456 103.6 654.589 102.8C656.789 101.933 658.456 101.067 659.589 100.2L663.889 108.7ZM645.289 72C641.889 72 639.356 73.0333 637.689 75.1C636.089 77.1 635.123 79.8 634.789 83.2H653.389C653.656 79.6 653.089 76.8333 651.689 74.9C650.356 72.9667 648.223 72 645.289 72ZM701.664 43H715.364V113H701.664V43ZM756.879 113V85.8C756.879 81.2 756.446 77.9333 755.579 76C754.713 74.0667 752.913 73.1 750.179 73.1C747.913 73.1 746.079 73.7333 744.679 75C743.279 76.2 742.213 77.7667 741.479 79.7V113H728.479V63H738.579L740.079 69.6H740.479C742.013 67.4667 743.946 65.6 746.279 64C748.679 62.4 751.746 61.6 755.479 61.6C758.679 61.6 761.279 62.2667 763.279 63.6C765.346 64.8667 766.946 67.0333 768.079 70.1C769.613 67.5 771.579 65.4333 773.979 63.9C776.379 62.3667 779.279 61.6 782.679 61.6C785.479 61.6 787.846 61.9333 789.779 62.6C791.779 63.2667 793.379 64.4333 794.579 66.1C795.846 67.7 796.779 69.8667 797.379 72.6C797.979 75.3333 798.279 78.8 798.279 83V113H785.279V84.9C785.279 80.9667 784.846 78.0333 783.979 76.1C783.179 74.1 781.346 73.1 778.479 73.1C776.146 73.1 774.279 73.7333 772.879 75C771.546 76.2667 770.546 78 769.879 80.2V113H756.879ZM808.948 63H818.448L819.948 69H820.348C822.081 66.4667 824.115 64.6 826.448 63.4C828.848 62.2 831.748 61.6 835.148 61.6C841.415 61.6 846.115 63.6 849.248 67.6C852.381 71.5333 853.948 77.9 853.948 86.7C853.948 90.9667 853.448 94.8333 852.448 98.3C851.448 101.7 849.948 104.6 847.948 107C846.015 109.4 843.615 111.233 840.748 112.5C837.948 113.767 834.715 114.4 831.048 114.4C828.981 114.4 827.281 114.233 825.948 113.9C824.615 113.633 823.281 113.167 821.948 112.5V133H808.948V63ZM831.248 72.6C828.715 72.6 826.715 73.2333 825.248 74.5C823.848 75.7667 822.748 77.6667 821.948 80.2V101C822.881 101.733 823.881 102.333 824.948 102.8C826.081 103.2 827.548 103.4 829.348 103.4C833.081 103.4 835.881 102.1 837.748 99.5C839.615 96.8333 840.548 92.4667 840.548 86.4C840.548 82 839.815 78.6 838.348 76.2C836.881 73.8 834.515 72.6 831.248 72.6ZM862.652 65.9C865.319 64.7 868.485 63.7667 872.152 63.1C875.819 62.3667 879.652 62 883.652 62C887.119 62 890.019 62.4333 892.352 63.3C894.685 64.1 896.519 65.2667 897.852 66.8C899.252 68.3333 900.219 70.1667 900.752 72.3C901.352 74.4333 901.652 76.8333 901.652 79.5C901.652 82.4333 901.552 85.4 901.352 88.4C901.152 91.3333 901.019 94.2333 900.952 97.1C900.952 99.9667 901.052 102.767 901.252 105.5C901.452 108.167 901.952 110.7 902.752 113.1H892.152L890.052 106.2H889.552C888.219 108.267 886.352 110.067 883.952 111.6C881.619 113.067 878.585 113.8 874.852 113.8C872.519 113.8 870.419 113.467 868.552 112.8C866.685 112.067 865.085 111.067 863.752 109.8C862.419 108.467 861.385 106.933 860.652 105.2C859.919 103.4 859.552 101.4 859.552 99.2C859.552 96.1333 860.219 93.5667 861.552 91.5C862.952 89.3667 864.919 87.6667 867.452 86.4C870.052 85.0667 873.119 84.1667 876.652 83.7C880.252 83.1667 884.252 83 888.652 83.2C889.119 79.4667 888.852 76.8 887.852 75.2C886.852 73.5333 884.619 72.7 881.152 72.7C878.552 72.7 875.785 72.9667 872.852 73.5C869.985 74.0333 867.619 74.7333 865.752 75.6L862.652 65.9ZM879.152 103.1C881.752 103.1 883.819 102.533 885.352 101.4C886.885 100.2 888.019 98.9333 888.752 97.6V91.1C886.685 90.9 884.685 90.8667 882.752 91C880.885 91.1333 879.219 91.4333 877.752 91.9C876.285 92.3667 875.119 93.0333 874.252 93.9C873.385 94.7667 872.952 95.8667 872.952 97.2C872.952 99.0667 873.485 100.533 874.552 101.6C875.685 102.6 877.219 103.1 879.152 103.1ZM947.961 109.9C945.961 111.367 943.528 112.467 940.661 113.2C937.861 114 934.961 114.4 931.961 114.4C927.961 114.4 924.561 113.767 921.761 112.5C919.028 111.233 916.795 109.467 915.061 107.2C913.328 104.867 912.061 102.067 911.261 98.8C910.528 95.5333 910.161 91.9333 910.161 88C910.161 79.5333 912.061 73.0333 915.861 68.5C919.661 63.9 925.195 61.6 932.461 61.6C936.128 61.6 939.061 61.9 941.261 62.5C943.528 63.1 945.561 63.8667 947.361 64.8L944.261 75.4C942.728 74.6667 941.195 74.1 939.661 73.7C938.195 73.3 936.495 73.1 934.561 73.1C930.961 73.1 928.228 74.3 926.361 76.7C924.495 79.0333 923.561 82.8 923.561 88C923.561 90.1333 923.795 92.1 924.261 93.9C924.728 95.7 925.428 97.2667 926.361 98.6C927.295 99.9333 928.495 101 929.961 101.8C931.495 102.533 933.261 102.9 935.261 102.9C937.461 102.9 939.328 102.633 940.861 102.1C942.395 101.5 943.761 100.8 944.961 100L947.961 109.9ZM950.623 63H957.523V53.6L970.523 49.9V63H982.723V74H970.523V93.2C970.523 96.6667 970.856 99.1667 971.523 100.7C972.256 102.167 973.59 102.9 975.523 102.9C976.856 102.9 977.99 102.767 978.923 102.5C979.923 102.233 981.023 101.833 982.223 101.3L984.523 111.3C982.723 112.167 980.623 112.9 978.223 113.5C975.823 114.1 973.39 114.4 970.923 114.4C966.323 114.4 962.923 113.233 960.723 110.9C958.59 108.5 957.523 104.6 957.523 99.2V74H950.623V63ZM1062.41 110.1C1060.28 111.633 1057.54 112.733 1054.21 113.4C1050.94 114.067 1047.58 114.4 1044.11 114.4C1039.91 114.4 1035.91 113.767 1032.11 112.5C1028.38 111.167 1025.08 109.067 1022.21 106.2C1019.34 103.267 1017.04 99.5 1015.31 94.9C1013.64 90.2333 1012.81 84.6 1012.81 78C1012.81 71.1333 1013.74 65.4 1015.61 60.8C1017.54 56.1333 1020.01 52.4 1023.01 49.6C1026.08 46.7333 1029.48 44.7 1033.21 43.5C1036.94 42.2333 1040.68 41.6 1044.41 41.6C1048.41 41.6 1051.78 41.8667 1054.51 42.4C1057.31 42.9333 1059.61 43.5667 1061.41 44.3L1058.71 55.9C1057.18 55.1667 1055.34 54.6333 1053.21 54.3C1051.14 53.9667 1048.61 53.8 1045.61 53.8C1040.08 53.8 1035.61 55.7667 1032.21 59.7C1028.88 63.6333 1027.21 69.7333 1027.21 78C1027.21 81.6 1027.61 84.9 1028.41 87.9C1029.21 90.8333 1030.41 93.3667 1032.01 95.5C1033.68 97.5667 1035.71 99.2 1038.11 100.4C1040.58 101.533 1043.41 102.1 1046.61 102.1C1049.61 102.1 1052.14 101.8 1054.21 101.2C1056.28 100.6 1058.08 99.8333 1059.61 98.9L1062.41 110.1ZM1064.56 88C1064.56 79.5333 1066.62 73.0333 1070.76 68.5C1074.89 63.9 1080.69 61.6 1088.16 61.6C1092.16 61.6 1095.62 62.2333 1098.56 63.5C1101.49 64.7667 1103.92 66.5667 1105.86 68.9C1107.79 71.1667 1109.22 73.9333 1110.16 77.2C1111.16 80.4667 1111.66 84.0667 1111.66 88C1111.66 96.4667 1109.59 103 1105.46 107.6C1101.39 112.133 1095.62 114.4 1088.16 114.4C1084.16 114.4 1080.69 113.767 1077.76 112.5C1074.82 111.233 1072.36 109.467 1070.36 107.2C1068.42 104.867 1066.96 102.067 1065.96 98.8C1065.02 95.5333 1064.56 91.9333 1064.56 88ZM1077.96 88C1077.96 90.2 1078.16 92.2333 1078.56 94.1C1078.96 95.9667 1079.56 97.6 1080.36 99C1081.16 100.4 1082.19 101.5 1083.46 102.3C1084.79 103.033 1086.36 103.4 1088.16 103.4C1091.56 103.4 1094.09 102.167 1095.76 99.7C1097.42 97.2333 1098.26 93.3333 1098.26 88C1098.26 83.4 1097.49 79.7 1095.96 76.9C1094.42 74.0333 1091.82 72.6 1088.16 72.6C1084.96 72.6 1082.46 73.8 1080.66 76.2C1078.86 78.6 1077.96 82.5333 1077.96 88ZM1134.07 96.2C1134.07 98.5333 1134.37 100.233 1134.97 101.3C1135.57 102.367 1136.53 102.9 1137.87 102.9C1138.67 102.9 1139.43 102.833 1140.17 102.7C1140.97 102.567 1141.93 102.267 1143.07 101.8L1144.47 112C1143.4 112.533 1141.77 113.067 1139.57 113.6C1137.37 114.133 1135.1 114.4 1132.77 114.4C1128.97 114.4 1126.07 113.533 1124.07 111.8C1122.07 110 1121.07 107.067 1121.07 103V43H1134.07V96.2ZM1163.46 96.2C1163.46 98.5333 1163.76 100.233 1164.36 101.3C1164.96 102.367 1165.93 102.9 1167.26 102.9C1168.06 102.9 1168.83 102.833 1169.56 102.7C1170.36 102.567 1171.33 102.267 1172.46 101.8L1173.86 112C1172.79 112.533 1171.16 113.067 1168.96 113.6C1166.76 114.133 1164.49 114.4 1162.16 114.4C1158.36 114.4 1155.46 113.533 1153.46 111.8C1151.46 110 1150.46 107.067 1150.46 103V43H1163.46V96.2ZM1179.16 65.9C1181.82 64.7 1184.99 63.7667 1188.66 63.1C1192.32 62.3667 1196.16 62 1200.16 62C1203.62 62 1206.52 62.4333 1208.86 63.3C1211.19 64.1 1213.02 65.2667 1214.36 66.8C1215.76 68.3333 1216.72 70.1667 1217.26 72.3C1217.86 74.4333 1218.16 76.8333 1218.16 79.5C1218.16 82.4333 1218.06 85.4 1217.86 88.4C1217.66 91.3333 1217.52 94.2333 1217.46 97.1C1217.46 99.9667 1217.56 102.767 1217.76 105.5C1217.96 108.167 1218.46 110.7 1219.26 113.1H1208.66L1206.56 106.2H1206.06C1204.72 108.267 1202.86 110.067 1200.46 111.6C1198.12 113.067 1195.09 113.8 1191.36 113.8C1189.02 113.8 1186.92 113.467 1185.06 112.8C1183.19 112.067 1181.59 111.067 1180.26 109.8C1178.92 108.467 1177.89 106.933 1177.16 105.2C1176.42 103.4 1176.06 101.4 1176.06 99.2C1176.06 96.1333 1176.72 93.5667 1178.06 91.5C1179.46 89.3667 1181.42 87.6667 1183.96 86.4C1186.56 85.0667 1189.62 84.1667 1193.16 83.7C1196.76 83.1667 1200.76 83 1205.16 83.2C1205.62 79.4667 1205.36 76.8 1204.36 75.2C1203.36 73.5333 1201.12 72.7 1197.66 72.7C1195.06 72.7 1192.29 72.9667 1189.36 73.5C1186.49 74.0333 1184.12 74.7333 1182.26 75.6L1179.16 65.9ZM1195.66 103.1C1198.26 103.1 1200.32 102.533 1201.86 101.4C1203.39 100.2 1204.52 98.9333 1205.26 97.6V91.1C1203.19 90.9 1201.19 90.8667 1199.26 91C1197.39 91.1333 1195.72 91.4333 1194.26 91.9C1192.79 92.3667 1191.62 93.0333 1190.76 93.9C1189.89 94.7667 1189.46 95.8667 1189.46 97.2C1189.46 99.0667 1189.99 100.533 1191.06 101.6C1192.19 102.6 1193.72 103.1 1195.66 103.1ZM1229.07 43H1242.07V67H1242.47C1243.87 65.4 1245.67 64.1333 1247.87 63.2C1250.07 62.2667 1252.5 61.8 1255.17 61.8C1261.17 61.8 1265.73 63.8667 1268.87 68C1272.07 72.0667 1273.67 78.3 1273.67 86.7C1273.67 95.7 1271.43 102.533 1266.97 107.2C1262.57 111.867 1256.5 114.2 1248.77 114.2C1244.5 114.2 1240.6 113.833 1237.07 113.1C1233.53 112.433 1230.87 111.667 1229.07 110.8V43ZM1251.37 72.8C1248.97 72.8 1247 73.4333 1245.47 74.7C1244 75.9 1242.87 77.6667 1242.07 80V101.8C1243.13 102.333 1244.27 102.7 1245.47 102.9C1246.73 103.1 1248.07 103.2 1249.47 103.2C1253 103.2 1255.67 101.933 1257.47 99.4C1259.33 96.8 1260.27 92.7 1260.27 87.1C1260.27 77.5667 1257.3 72.8 1251.37 72.8ZM1280.28 88C1280.28 79.5333 1282.35 73.0333 1286.48 68.5C1290.61 63.9 1296.41 61.6 1303.88 61.6C1307.88 61.6 1311.35 62.2333 1314.28 63.5C1317.21 64.7667 1319.65 66.5667 1321.58 68.9C1323.51 71.1667 1324.95 73.9333 1325.88 77.2C1326.88 80.4667 1327.38 84.0667 1327.38 88C1327.38 96.4667 1325.31 103 1321.18 107.6C1317.11 112.133 1311.35 114.4 1303.88 114.4C1299.88 114.4 1296.41 113.767 1293.48 112.5C1290.55 111.233 1288.08 109.467 1286.08 107.2C1284.15 104.867 1282.68 102.067 1281.68 98.8C1280.75 95.5333 1280.28 91.9333 1280.28 88ZM1293.68 88C1293.68 90.2 1293.88 92.2333 1294.28 94.1C1294.68 95.9667 1295.28 97.6 1296.08 99C1296.88 100.4 1297.91 101.5 1299.18 102.3C1300.51 103.033 1302.08 103.4 1303.88 103.4C1307.28 103.4 1309.81 102.167 1311.48 99.7C1313.15 97.2333 1313.98 93.3333 1313.98 88C1313.98 83.4 1313.21 79.7 1311.68 76.9C1310.15 74.0333 1307.55 72.6 1303.88 72.6C1300.68 72.6 1298.18 73.8 1296.38 76.2C1294.58 78.6 1293.68 82.5333 1293.68 88ZM1363.99 75.2C1361.92 74.4667 1360.06 74.1 1358.39 74.1C1356.06 74.1 1354.09 74.7333 1352.49 76C1350.96 77.2 1349.92 78.7667 1349.39 80.7V113H1336.39V63H1346.49L1347.99 69.6H1348.39C1349.52 67.1333 1351.06 65.2333 1352.99 63.9C1354.92 62.5667 1357.19 61.9 1359.79 61.9C1361.52 61.9 1363.49 62.2667 1365.69 63L1363.99 75.2ZM1371.15 65.9C1373.81 64.7 1376.98 63.7667 1380.65 63.1C1384.31 62.3667 1388.15 62 1392.15 62C1395.61 62 1398.51 62.4333 1400.85 63.3C1403.18 64.1 1405.01 65.2667 1406.35 66.8C1407.75 68.3333 1408.71 70.1667 1409.25 72.3C1409.85 74.4333 1410.15 76.8333 1410.15 79.5C1410.15 82.4333 1410.05 85.4 1409.85 88.4C1409.65 91.3333 1409.51 94.2333 1409.45 97.1C1409.45 99.9667 1409.55 102.767 1409.75 105.5C1409.95 108.167 1410.45 110.7 1411.25 113.1H1400.65L1398.55 106.2H1398.05C1396.71 108.267 1394.85 110.067 1392.45 111.6C1390.11 113.067 1387.08 113.8 1383.35 113.8C1381.01 113.8 1378.91 113.467 1377.05 112.8C1375.18 112.067 1373.58 111.067 1372.25 109.8C1370.91 108.467 1369.88 106.933 1369.15 105.2C1368.41 103.4 1368.05 101.4 1368.05 99.2C1368.05 96.1333 1368.71 93.5667 1370.05 91.5C1371.45 89.3667 1373.41 87.6667 1375.95 86.4C1378.55 85.0667 1381.61 84.1667 1385.15 83.7C1388.75 83.1667 1392.75 83 1397.15 83.2C1397.61 79.4667 1397.35 76.8 1396.35 75.2C1395.35 73.5333 1393.11 72.7 1389.65 72.7C1387.05 72.7 1384.28 72.9667 1381.35 73.5C1378.48 74.0333 1376.11 74.7333 1374.25 75.6L1371.15 65.9ZM1387.65 103.1C1390.25 103.1 1392.31 102.533 1393.85 101.4C1395.38 100.2 1396.51 98.9333 1397.25 97.6V91.1C1395.18 90.9 1393.18 90.8667 1391.25 91C1389.38 91.1333 1387.71 91.4333 1386.25 91.9C1384.78 92.3667 1383.61 93.0333 1382.75 93.9C1381.88 94.7667 1381.45 95.8667 1381.45 97.2C1381.45 99.0667 1381.98 100.533 1383.05 101.6C1384.18 102.6 1385.71 103.1 1387.65 103.1ZM1415.86 63H1422.76V53.6L1435.76 49.9V63H1447.96V74H1435.76V93.2C1435.76 96.6667 1436.09 99.1667 1436.76 100.7C1437.49 102.167 1438.82 102.9 1440.76 102.9C1442.09 102.9 1443.22 102.767 1444.16 102.5C1445.16 102.233 1446.26 101.833 1447.46 101.3L1449.76 111.3C1447.96 112.167 1445.86 112.9 1443.46 113.5C1441.06 114.1 1438.62 114.4 1436.16 114.4C1431.56 114.4 1428.16 113.233 1425.96 110.9C1423.82 108.5 1422.76 104.6 1422.76 99.2V74H1415.86V63ZM1457.12 63H1470.12V113H1457.12V63ZM1455.22 48.9C1455.22 46.9667 1455.92 45.3333 1457.32 44C1458.79 42.6 1460.79 41.9 1463.32 41.9C1465.85 41.9 1467.89 42.6 1469.42 44C1471.02 45.3333 1471.82 46.9667 1471.82 48.9C1471.82 50.8333 1471.02 52.4667 1469.42 53.8C1467.89 55.0667 1465.85 55.7 1463.32 55.7C1460.79 55.7 1458.79 55.0667 1457.32 53.8C1455.92 52.4667 1455.22 50.8333 1455.22 48.9ZM1500.08 89.2L1501.78 96.9H1502.28L1503.68 89L1512.18 63H1526.18L1505.28 113.5H1497.38L1475.68 63H1490.78L1500.08 89.2ZM1569.75 108.7C1567.75 110.3 1565.02 111.667 1561.55 112.8C1558.15 113.867 1554.52 114.4 1550.65 114.4C1542.58 114.4 1536.68 112.067 1532.95 107.4C1529.22 102.667 1527.35 96.2 1527.35 88C1527.35 79.2 1529.45 72.6 1533.65 68.2C1537.85 63.8 1543.75 61.6 1551.35 61.6C1553.88 61.6 1556.35 61.9333 1558.75 62.6C1561.15 63.2667 1563.28 64.3667 1565.15 65.9C1567.02 67.4333 1568.52 69.5 1569.65 72.1C1570.78 74.7 1571.35 77.9333 1571.35 81.8C1571.35 83.2 1571.25 84.7 1571.05 86.3C1570.92 87.9 1570.68 89.5667 1570.35 91.3H1540.35C1540.55 95.5 1541.62 98.6667 1543.55 100.8C1545.55 102.933 1548.75 104 1553.15 104C1555.88 104 1558.32 103.6 1560.45 102.8C1562.65 101.933 1564.32 101.067 1565.45 100.2L1569.75 108.7ZM1551.15 72C1547.75 72 1545.22 73.0333 1543.55 75.1C1541.95 77.1 1540.98 79.8 1540.65 83.2H1559.25C1559.52 79.6 1558.95 76.8333 1557.55 74.9C1556.22 72.9667 1554.08 72 1551.15 72Z" fill="white"></path></g><defs><clipPath id="clip0_175_16"><rect width="1578" height="168" fill="white"></rect></clipPath><clipPath id="clip1_175_16"><rect width="318.316" height="168" fill="white"></rect></clipPath></defs></svg>